<?xml version="1.0" encoding="utf-8"?>
<!-- Generator: Adobe Illustrator 27.4.1, SVG Export Plug-In . SVG Version: 6.00 Build 0)  -->
<svg version="1.1" id="默认值" xmlns="http://www.w3.org/2000/svg" xmlns:xlink="http://www.w3.org/1999/xlink" x="0px" y="0px"
	 viewBox="0 0 70.87 70.87" style="enable-background:new 0 0 70.87 70.87;" xml:space="preserve">
<g>
	<circle cx="42.52" cy="28.35" r="7.09"/>
	<path d="M29.76,29.76c0-1.42,0-2.83,0-4.25c0-2.35-1.9-4.25-4.25-4.25s-4.25,1.9-4.25,4.25c0,6.61,0,13.23,0,19.84
		c0,2.35,1.9,4.25,4.25,4.25c6.61,0,13.23,0,19.84,0c2.35,0,4.25-1.9,4.25-4.25s-1.9-4.25-4.25-4.25c-1.42,0-2.83,0-4.25,0
		c-3.01,0-5.89-1.19-8.02-3.32C30.96,35.65,29.76,32.77,29.76,29.76z"/>
</g>
</svg>
